<?xml version="1.0" encoding="UTF-8" standalone="no"?>
<!DOCTYPE svg PUBLIC "-//W3C//DTD SVG 1.1//EN"
 "http://www.w3.org/Graphics/SVG/1.1/DTD/svg11.dtd">
<!-- Generated by graphviz version 2.47.1 (20210417.1919)
 -->
<!-- Title: CUG Manager Pages: 1 -->
<svg width="374pt" height="332pt"
 viewBox="0.00 0.00 373.50 332.00" xmlns="http://www.w3.org/2000/svg" xmlns:xlink="http://www.w3.org/1999/xlink">
<g id="graph0" class="graph" transform="scale(1 1) rotate(0) translate(4 328)">
<title>CUG Manager</title>
<polygon fill="white" stroke="transparent" points="-4,4 -4,-328 369.5,-328 369.5,4 -4,4"/>
<!-- RegisterCUG -->
<g id="node1" class="node">
<title>RegisterCUG</title>
<polygon fill="none" stroke="black" points="212.5,-324 112.5,-324 112.5,-288 212.5,-288 212.5,-324"/>
<text text-anchor="start" x="124.4" y="-301.4" font-family="Times New Roman,serif" font-size="14.00">RegisterCUG</text>
</g>
<!-- SuccessScreen -->
<g id="node2" class="node">
<title>SuccessScreen</title>
<polygon fill="none" stroke="black" points="361.5,-252 255.5,-252 255.5,-216 361.5,-216 361.5,-252"/>
<text text-anchor="start" x="267.3" y="-229.4" font-family="Times New Roman,serif" font-size="14.00">SuccessScreen</text>
</g>
<!-- RegisterCUG&#45;&gt;SuccessScreen -->
<g id="edge1" class="edge">
<title>RegisterCUG&#45;&gt;SuccessScreen</title>
<path fill="none" stroke="black" d="M198.22,-287.88C218,-278.39 242.77,-266.51 263.83,-256.42"/>
<polygon fill="black" stroke="black" points="265.4,-259.55 272.9,-252.07 262.37,-253.24 265.4,-259.55"/>
</g>
<!-- WelcomeScreen -->
<g id="node3" class="node">
<title>WelcomeScreen</title>
<polygon fill="none" stroke="black" points="199,-180 84,-180 84,-144 199,-144 199,-180"/>
<text text-anchor="start" x="96.14" y="-157.4" font-family="Times New Roman,serif" font-size="14.00">WelcomeScreen</text>
</g>
<!-- SuccessScreen&#45;&gt;WelcomeScreen -->
<g id="edge2" class="edge">
<title>SuccessScreen&#45;&gt;WelcomeScreen</title>
<path fill="none" stroke="black" d="M267.65,-215.88C244.72,-206.26 215.92,-194.19 191.63,-184.01"/>
<polygon fill="black" stroke="black" points="192.8,-180.71 182.22,-180.07 190.09,-187.16 192.8,-180.71"/>
</g>
<!-- WelcomeScreen&#45;&gt;RegisterCUG -->
<g id="edge4" class="edge">
<title>WelcomeScreen&#45;&gt;RegisterCUG</title>
<path fill="none" stroke="black" d="M144.04,-180.19C147.63,-204.42 154.2,-248.89 158.46,-277.68"/>
<polygon fill="black" stroke="black" points="155.04,-278.49 159.97,-287.87 161.97,-277.47 155.04,-278.49"/>
</g>
<!-- MyCUGRecord -->
<g id="node4" class="node">
<title>MyCUGRecord</title>
<polygon fill="none" stroke="black" points="113,-108 0,-108 0,-72 113,-72 113,-108"/>
<text text-anchor="start" x="12.29" y="-85.4" font-family="Times New Roman,serif" font-size="14.00">MyCUGRecord</text>
</g>
<!-- WelcomeScreen&#45;&gt;MyCUGRecord -->
<g id="edge3" class="edge">
<title>WelcomeScreen&#45;&gt;MyCUGRecord</title>
<path fill="none" stroke="black" d="M114.57,-143.7C103.07,-134.97 89.88,-124.24 78.91,-114.75"/>
<polygon fill="black" stroke="black" points="81.19,-112.09 71.37,-108.1 76.56,-117.34 81.19,-112.09"/>
</g>
<!-- EditRecord -->
<g id="node5" class="node">
<title>EditRecord</title>
<polygon fill="none" stroke="black" points="257,-108 170,-108 170,-72 257,-72 257,-108"/>
<text text-anchor="start" x="182.12" y="-85.4" font-family="Times New Roman,serif" font-size="14.00">EditRecord</text>
</g>
<!-- WelcomeScreen&#45;&gt;EditRecord -->
<g id="edge5" class="edge">
<title>WelcomeScreen&#45;&gt;EditRecord</title>
<path fill="none" stroke="black" d="M153.38,-143.7C161.38,-135.05 172.11,-124.45 182.34,-115.03"/>
<polygon fill="black" stroke="black" points="184.93,-117.4 190.01,-108.1 180.24,-112.21 184.93,-117.4"/>
</g>
<!-- MyCUGRecord&#45;&gt;RegisterCUG -->
<g id="edge7" class="edge">
<title>MyCUGRecord&#45;&gt;RegisterCUG</title>
<path fill="none" stroke="black" d="M57.84,-108.02C59.77,-126.41 64.28,-156.25 74.5,-180 90.83,-217.94 119.84,-255.96 140.06,-279.93"/>
<polygon fill="black" stroke="black" points="137.65,-282.49 146.82,-287.8 142.96,-277.93 137.65,-282.49"/>
</g>
<!-- MyCUGRecord&#45;&gt;WelcomeScreen -->
<g id="edge6" class="edge">
<title>MyCUGRecord&#45;&gt;WelcomeScreen</title>
<path fill="none" stroke="black" d="M83.16,-108.1C94.64,-116.8 107.84,-127.52 118.84,-137.03"/>
<polygon fill="black" stroke="black" points="116.59,-139.71 126.4,-143.7 121.21,-134.46 116.59,-139.71"/>
</g>
<!-- EditRecord&#45;&gt;RegisterCUG -->
<g id="edge9" class="edge">
<title>EditRecord&#45;&gt;RegisterCUG</title>
<path fill="none" stroke="black" d="M213.75,-108.25C213.68,-126.33 212.64,-155.44 207.5,-180 200.19,-214.92 185.28,-253.28 174.63,-278.17"/>
<polygon fill="black" stroke="black" points="171.29,-277.08 170.5,-287.65 177.7,-279.88 171.29,-277.08"/>
</g>
<!-- EditRecord&#45;&gt;WelcomeScreen -->
<g id="edge8" class="edge">
<title>EditRecord&#45;&gt;WelcomeScreen</title>
<path fill="none" stroke="black" d="M201.8,-108.1C193.84,-116.72 183.13,-127.32 172.9,-136.76"/>
<polygon fill="black" stroke="black" points="170.29,-134.4 165.21,-143.7 174.98,-139.59 170.29,-134.4"/>
</g>
<!-- SuccessfulEdit -->
<g id="node6" class="node">
<title>SuccessfulEdit</title>
<polygon fill="none" stroke="black" points="231,-36 124,-36 124,0 231,0 231,-36"/>
<text text-anchor="start" x="136.4" y="-13.4" font-family="Times New Roman,serif" font-size="14.00">SuccessfulEdit</text>
</g>
<!-- EditRecord&#45;&gt;SuccessfulEdit -->
<g id="edge10" class="edge">
<title>EditRecord&#45;&gt;SuccessfulEdit</title>
<path fill="none" stroke="black" d="M204.6,-71.7C200.5,-63.73 195.55,-54.1 191.01,-45.26"/>
<polygon fill="black" stroke="black" points="193.98,-43.4 186.3,-36.1 187.76,-46.6 193.98,-43.4"/>
</g>
<!-- SuccessfulEdit&#45;&gt;WelcomeScreen -->
<g id="edge11" class="edge">
<title>SuccessfulEdit&#45;&gt;WelcomeScreen</title>
<path fill="none" stroke="black" d="M171.55,-36.06C168.07,-46.38 163.73,-59.86 160.5,-72 155.04,-92.48 150.09,-115.94 146.61,-133.63"/>
<polygon fill="black" stroke="black" points="143.1,-133.34 144.64,-143.82 149.97,-134.66 143.1,-133.34"/>
</g>
<!-- RegisterCUG_1 -->
<g id="node7" class="node">
<title>RegisterCUG_1</title>
<polygon fill="none" stroke="black" points="365.5,-324 251.5,-324 251.5,-288 365.5,-288 365.5,-324"/>
<text text-anchor="start" x="263.4" y="-301.4" font-family="Times New Roman,serif" font-size="14.00">RegisterCUG_1</text>
</g>
<!-- RegisterCUG_1&#45;&gt;SuccessScreen -->
<g id="edge12" class="edge">
<title>RegisterCUG_1&#45;&gt;SuccessScreen</title>
<path fill="none" stroke="black" d="M308.5,-287.7C308.5,-279.98 308.5,-270.71 308.5,-262.11"/>
<polygon fill="black" stroke="black" points="312,-262.1 308.5,-252.1 305,-262.1 312,-262.1"/>
</g>
</g>
</svg>
